<svg width="309" height="40" viewBox="0 0 309 40" fill="none" xmlns="http://www.w3.org/2000/svg">
<g clip-path="url(#clip0_39185_912)">
<path d="M300.351 17.2674L307.533 9.53361H303.259L298.201 15.1478V2.45238H294.544V26.7703H298.201V19.6891L304.564 26.7703H309.004L300.355 17.2717L300.351 17.2674ZM280.377 12.8881C280.377 12.4371 282.37 11.8502 284.848 11.8502C286.088 11.8502 286.153 13.707 286.153 16.0193V26.7353H289.81V15.1741C289.81 11.9816 289.582 9.13948 285.304 9.13948C280.408 9.13948 276.721 10.7729 276.721 11.7495V26.7309H280.377V12.8881ZM264.253 24.4493C263.272 24.4493 263.014 23.3414 263.044 21.7079C263.075 20.3372 263.338 19.4219 264.218 19.4219C266.469 19.4219 268.396 19.9781 268.689 20.4029V23.7968C268.492 24.1559 266.569 24.4493 264.248 24.4493H264.253ZM272.346 15.6032C272.346 11.6225 270.226 9.13948 265.948 9.13948C263.828 9.13948 262.326 9.43289 261.249 9.79199L261.77 12.3363C264.218 11.9466 264.774 11.8459 265.948 11.8459C268.067 11.8459 268.689 14.0004 268.689 16.6455V17.298C267.349 16.9389 265.685 16.7112 263.762 16.7112C259.782 16.7112 259.357 19.2555 259.357 21.9663C259.357 25.1325 260.206 27.1601 263.797 27.1601C265.659 27.1601 269.674 26.998 271.763 25.6186C272.122 25.3909 272.35 25.1938 272.35 24.8697V15.5989L272.346 15.6032ZM247.148 6.17035C249.661 6.17035 251.654 7.18196 251.654 9.69564C251.654 12.2093 249.661 13.383 247.148 13.383H242.611V6.17035H247.148ZM247.476 16.2557C249.99 16.2557 252.044 17.333 252.079 19.8774V20.3679C252.044 22.9779 249.893 23.8932 247.248 23.8932H242.615V16.2557H247.48H247.476ZM247.148 26.7659C252.959 26.7659 255.893 24.5807 255.928 20.3679V19.8774C255.897 17.6921 254.654 15.6339 253.121 14.6529C254.492 13.672 255.538 11.8809 255.538 9.75695C255.503 5.44778 252.372 3.29319 247.148 3.29319H238.792V26.7616H247.148V26.7659ZM229.898 21.7736V12.275H233.651V9.56427H229.898V4.86534H226.241V9.56427H222.65V12.275H226.241V22.8159C226.241 25.947 227.839 27.1294 230.09 27.1294C231.071 27.1294 232.21 26.836 233.484 26.3411L232.963 23.6304C231.851 24.0552 231.168 24.2829 230.874 24.2829C230.06 24.2829 229.893 23.175 229.893 21.7692L229.898 21.7736ZM220.697 22.5224C220.697 20.3022 218.118 18.4103 215.214 16.4835C213.712 15.4368 212.569 14.4252 212.569 13.4136C212.569 12.205 213.909 11.8809 215.31 11.8809C216.615 11.8809 218.573 12.24 219.458 12.402L219.979 9.79199C218.608 9.3672 217.01 9.10883 215.573 9.10883C212.503 9.10883 209.307 9.69564 208.882 12.9932C208.492 15.7653 210.971 17.5301 213.156 18.9315C214.754 20.0088 216.909 21.3488 216.909 22.7808C216.909 24.0201 215.407 24.3486 213.712 24.3486C212.341 24.3486 210.384 23.8581 209.175 23.499L208.654 26.2098C210.121 26.6346 212.144 27.1601 213.975 27.1601C217.369 27.1601 220.697 25.912 220.697 22.5181V22.5224ZM204.897 9.53361H201.24V23.4684C201.24 23.8932 199.217 24.4493 196.734 24.4493C195.429 24.4493 195.459 22.3954 195.459 19.8818V9.53361H191.803V21.1211C191.803 24.3179 192.03 27.1644 196.309 27.1644C201.205 27.1644 204.892 25.5266 204.892 24.5457V9.53361H204.897ZM181.757 12.4721C184.073 11.7232 186.132 11.8196 188.352 12.4414L188.873 9.86206C186.359 8.16291 177.872 9.5993 177.741 11.7232V26.7353H181.398V12.8005C181.398 12.6692 181.494 12.5728 181.757 12.4721ZM171.378 26.7353V6.17035H178.393V3.29757H160.574V6.17035H167.559V26.7353H171.378ZM159.186 22.5224C159.186 20.3022 156.607 18.4103 153.703 16.4835C152.201 15.4368 151.058 14.4252 151.058 13.4136C151.058 12.205 152.398 11.8809 153.8 11.8809C155.105 11.8809 157.062 12.24 157.942 12.402L158.464 9.79199C157.093 9.3672 155.494 9.10883 154.058 9.10883C150.988 9.10883 147.791 9.69564 147.367 12.9932C146.977 15.7653 149.455 17.5301 151.641 18.9315C153.239 20.0088 155.394 21.3488 155.394 22.7808C155.394 24.0201 153.892 24.3486 152.197 24.3486C150.826 24.3486 148.869 23.8581 147.66 23.499L147.139 26.2098C148.606 26.6346 150.629 27.1601 152.46 27.1601C155.853 27.1601 159.182 25.912 159.182 22.5181L159.186 22.5224ZM133.957 12.8881C133.957 12.4371 135.95 11.8502 138.428 11.8502C139.668 11.8502 139.734 13.707 139.734 16.0193V26.7353H143.39V15.1741C143.39 11.9816 143.162 9.13948 138.884 9.13948C133.988 9.13948 130.301 10.7729 130.301 11.7495V26.7309H133.957V12.8881ZM116.594 16.4528C116.594 13.6151 116.953 11.8502 119.497 11.8502C122.041 11.8502 122.435 13.6107 122.435 16.4528V19.8467C122.435 22.6845 122.046 24.4493 119.497 24.4493C116.948 24.4493 116.594 22.6889 116.594 19.8467V16.4528ZM112.937 20.727C112.937 24.8741 114.995 27.1644 119.497 27.1644C123.999 27.1644 126.092 24.8741 126.092 20.727V15.5682C126.092 11.4211 124.034 9.13948 119.497 9.13948C114.96 9.13948 112.937 11.4254 112.937 15.5682V20.727ZM107.388 6.66083V2.45238H103.732V6.66083H107.388ZM107.388 9.53361H103.732V22.8159C103.732 25.947 105.33 27.1294 107.581 27.1294C108.562 27.1294 109.701 26.836 110.975 26.3411L110.419 23.6304C107.971 24.5763 107.384 24.5763 107.384 21.7692V9.52923L107.388 9.53361ZM97.0403 21.7736V12.275H100.793V9.56427H97.0403V4.86534H93.3836V9.56427H89.7926V12.275H93.3836V22.8159C93.3836 25.947 94.982 27.1294 97.233 27.1294C98.2139 27.1294 99.3525 26.836 100.627 26.3411L100.106 23.6304C98.9978 24.0552 98.3102 24.2829 98.0168 24.2829C97.2023 24.2829 97.0359 23.175 97.0359 21.7692L97.0403 21.7736ZM79.9043 24.4493C78.9233 24.4493 78.665 23.3414 78.6956 21.7079C78.7263 20.3372 78.989 19.4219 79.8693 19.4219C82.1202 19.4219 84.0471 19.9781 84.3405 20.4029V23.7968C84.1434 24.1559 82.2209 24.4493 79.8999 24.4493H79.9043ZM88.0015 15.6032C88.0015 11.6225 85.882 9.13948 81.6034 9.13948C79.4839 9.13948 77.9818 9.43289 76.9045 9.79199L77.4256 12.3363C79.8736 11.9466 80.4298 11.8459 81.6034 11.8459C83.723 11.8459 84.3448 14.0004 84.3448 16.6455V17.298C83.0048 16.9389 81.3407 16.7112 79.4182 16.7112C75.4375 16.7112 75.0127 19.2555 75.0127 21.9663C75.0127 25.1325 75.8622 27.1601 79.4532 27.1601C81.3144 27.1601 85.3302 26.998 87.4191 25.6186C87.7782 25.3909 88.0059 25.1938 88.0059 24.8697V15.5989L88.0015 15.6032ZM55.2623 9.88395L67.73 26.7353H71.0933V3.29757H67.3402V20.3766L54.6755 3.29757H51.5093V26.7309H55.2623V9.88395Z" fill="#0088CF"/>
<path d="M20.0313 0.507993C20.5481 1.23495 21.5816 1.56339 22.4093 1.75608C23.2982 1.9619 24.2091 2.05387 25.1156 2.08014C26.9243 2.13269 28.7504 2.04511 30.559 2.02321C32.2626 2.00132 33.9836 1.90935 35.6871 1.97504C37.2155 2.03197 38.9584 2.36041 40.2153 3.28443C40.9247 3.80556 41.5947 4.56755 41.4195 5.51347C41.3495 5.87257 41.2838 6.23604 41.2137 6.59514C40.8502 8.53077 40.4824 10.4664 40.1189 12.402C39.4445 15.9711 38.7745 19.5402 38.1001 23.1049C38.1001 23.1136 38.1001 23.1224 38.0957 23.1312C38.4198 21.4408 36.9264 20.0744 35.4725 19.5358C34.6974 19.2512 33.9091 19.1811 33.0902 19.1592C31.9823 19.1329 30.8743 19.1023 29.7664 19.076C28.8073 19.0541 27.8483 19.0278 26.8848 19.0015C26.4119 18.9884 25.9389 18.9796 25.4703 18.9008C24.1916 18.6906 22.707 18.2308 22.0721 16.9915C21.8881 16.6367 21.8881 16.2207 21.8356 15.831C21.7305 15.012 21.6254 14.1931 21.5246 13.3786C21.2269 11.0313 20.9247 8.68842 20.6269 6.34114C20.3641 4.29604 20.1058 2.25093 19.843 0.201447C19.8956 0.306548 19.9569 0.407271 20.0269 0.499235" fill="#0096D5"/>
<path d="M2.35234 13.6632C2.88223 11.9115 4.55072 10.7335 6.14039 10.0066C7.62495 9.37158 9.18834 8.97307 10.813 8.97745C11.6714 8.97745 12.5297 8.98183 13.3837 8.98621C17.8811 8.99934 22.3786 9.01248 26.8761 9.03C29.8277 9.03876 32.7793 9.04752 35.7353 9.05627C37.1279 9.05627 38.5336 8.86797 39.8474 8.39501C41.0561 7.96146 42.5407 7.14255 42.8297 5.77184C42.1202 9.13948 41.4108 12.5071 40.7014 15.8791C40.2722 17.9067 39.8474 19.9387 39.4183 21.9663C39.3219 22.4305 39.2212 22.8947 39.1248 23.3633C38.8533 24.6464 37.8811 25.5704 36.7075 26.0828C35.2711 26.6959 33.7909 26.5864 32.2757 26.5251C30.1912 26.4375 28.1067 26.3543 26.0222 26.2667C22.5801 26.1266 19.1336 25.9426 15.6915 25.8419C14.0318 25.7718 12.3414 26.4813 11.2028 27.6856C10.1562 28.7891 9.52554 30.5671 10.2131 32.0254C8.74604 28.9249 7.27899 25.8244 5.81632 22.7283C4.97113 20.9415 4.12594 19.1504 3.28074 17.3637C3.03988 16.8557 2.79903 16.3433 2.55817 15.8353C2.22535 15.1347 2.11586 14.4471 2.35234 13.6676" fill="#0096D5"/>
<path d="M20.9817 24.0245L23.6574 40L24.6471 39.203L22.5013 23.0567L20.9817 24.0245Z" fill="#EB008B"/>
<path d="M0.946716 16.3258C1.89263 18.0031 4.25304 18.2483 5.97409 18.3228C7.92285 18.406 9.85847 18.5505 11.7678 18.984C13.7253 19.4263 15.6522 20.1401 17.3689 21.1824C18.2228 21.6992 19.0417 22.2772 19.7994 22.9253C20.1716 23.245 20.5351 23.5735 20.8854 23.9194C20.9204 23.9632 20.9818 23.9895 20.9905 24.0464C21.608 27.7469 22.2298 31.443 22.8473 35.1434C23.1188 36.7594 23.3903 38.3753 23.6575 39.9956C22.3612 38.3972 20.7759 37.0484 18.9147 36.1419C17.0886 35.2529 15.0829 34.8456 13.0641 34.7143C11.6715 34.6267 10.165 34.1669 9.37238 32.9363C9.17531 32.6254 9.02204 32.2794 8.85563 31.951C6.93314 28.1498 5.00627 24.353 3.08379 20.5518C2.35245 19.111 1.6255 17.6702 0.894165 16.2295C0.911682 16.2601 0.929199 16.2908 0.942337 16.3214" fill="#EB008B"/>
<path d="M20.9466 0L19.843 0.205824C20.0488 0.63499 20.443 0.972192 20.9335 1.23057C21.4327 1.49332 22.037 1.68163 22.6501 1.80863C23.272 1.94 23.9026 2.01007 24.4544 2.04511C25.0105 2.08452 25.4835 2.08452 25.79 2.08452C25.8338 2.08452 25.8732 2.08452 25.9127 2.08452C25.9477 2.08452 25.9827 2.08452 26.0134 2.08452C26.044 2.08452 26.0659 2.08452 26.0878 2.08452C26.1097 2.08452 26.1229 2.08452 26.136 2.08452C26.1404 2.08452 26.6659 2.07576 27.4585 2.067C28.2555 2.05824 29.3241 2.04511 30.4101 2.03197C31.5006 2.01883 32.6129 2.00569 33.48 1.99256C34.3514 1.9838 34.9777 1.97504 35.0915 1.97504C35.8579 1.96628 36.598 2.03197 37.2899 2.16335C37.9862 2.29472 38.6343 2.49179 39.1993 2.73703C39.7729 2.99102 40.2678 3.29319 40.6444 3.64353C41.0298 3.99825 41.2925 4.39676 41.3933 4.82593C41.4984 5.26385 41.4239 5.68864 41.1962 6.08715C40.9641 6.49004 40.5744 6.86227 40.0576 7.17758C39.5321 7.49726 38.8796 7.75564 38.1351 7.93957C37.3819 8.1235 36.5454 8.22422 35.6521 8.22422L11.1721 8.19356C10.1955 8.19356 9.20584 8.30742 8.25116 8.52201C7.28773 8.73659 6.35057 9.0519 5.4791 9.44165C4.59888 9.84016 3.77996 10.3263 3.07928 10.8737C2.36108 11.4342 1.76113 12.0692 1.33634 12.7524C1.3232 12.7743 1.22686 12.9188 1.113 13.1465C0.994759 13.3786 0.859002 13.6939 0.7539 14.0617C0.648799 14.434 0.58311 14.8588 0.622523 15.2967C0.657557 15.739 0.802072 16.1944 1.11738 16.6192C1.31444 16.882 1.56406 17.1185 1.86623 17.3243C2.17278 17.5301 2.53625 17.7097 2.95228 17.8542C3.37269 18.0031 3.84127 18.1169 4.36678 18.1958C4.89666 18.279 5.47472 18.3271 6.10533 18.3446C7.65997 18.3841 9.1095 18.5154 10.4627 18.7475C11.8378 18.9796 13.1209 19.3168 14.3252 19.7591C15.5557 20.2102 16.7075 20.7795 17.7935 21.4714C18.9102 22.1852 19.97 23.0348 20.9729 24.042L22.4881 23.0742C21.3933 22.0276 20.2503 21.143 19.046 20.4029C17.8767 19.6847 16.6462 19.0979 15.3368 18.6337C14.058 18.1782 12.6961 17.8323 11.2422 17.5958C9.81017 17.3593 8.28182 17.2279 6.64398 17.1929C6.13599 17.1841 5.67179 17.1447 5.247 17.0834C4.8266 17.0221 4.4456 16.9389 4.1084 16.8294C3.77558 16.7199 3.48217 16.5886 3.23255 16.4309C2.98731 16.2776 2.78587 16.0981 2.62384 15.901C2.36108 15.5726 2.23846 15.2091 2.20343 14.8544C2.1684 14.5041 2.21219 14.1537 2.29101 13.8515C2.36546 13.5494 2.47494 13.291 2.56253 13.1027C2.65011 12.9188 2.72018 12.8049 2.72456 12.7961C3.05738 12.2312 3.5391 11.7101 4.11716 11.2415C4.68646 10.7861 5.35648 10.3788 6.07906 10.046C6.79726 9.71754 7.57238 9.45479 8.3694 9.27524C9.16205 9.09569 9.98096 8.99934 10.7955 9.00372L35.7178 9.08255C36.8345 9.08255 37.8855 8.95993 38.8227 8.72783C39.7554 8.50011 40.5656 8.16729 41.2093 7.7644C41.8443 7.36589 42.3173 6.90169 42.5888 6.39807C42.8559 5.90322 42.9304 5.37771 42.7815 4.83468C42.637 4.30918 42.2998 3.82308 41.8137 3.38953C41.3407 2.96913 40.7276 2.59689 40.0182 2.29472C39.3219 1.99693 38.5336 1.76483 37.6841 1.61156C36.8476 1.45829 35.9499 1.37946 35.0259 1.3926L26.171 1.51084C26.171 1.51084 26.1404 1.51084 26.1185 1.51084C26.0966 1.51084 26.0703 1.51084 26.0396 1.51084C26.009 1.51084 25.974 1.51084 25.9302 1.51084C25.8908 1.51084 25.8426 1.51084 25.7944 1.51084C25.5317 1.51084 25.1375 1.51084 24.6821 1.48018C24.231 1.44953 23.7186 1.3926 23.2194 1.29188C22.7246 1.19115 22.2385 1.04226 21.8312 0.832056C21.4327 0.626232 21.1086 0.354719 20.9291 0.00875849" fill="white"/>
</g>
<defs>
<clipPath id="clip0_39185_912">
<rect width="308.378" height="40" fill="white" transform="translate(0.622559)"/>
</clipPath>
</defs>
</svg>
